<svg id="Layer_1" data-name="Layer 1" xmlns="http://www.w3.org/2000/svg" viewBox="0 0 974.83 657.73"><defs><style>.cls-1{fill:#fff;}</style></defs><path class="cls-1" d="M119.6,97.24V65.55H263.14V96.87h64.25V65.57h95.75V97.24h6.18c13.83,0,27.66-.11,41.49.09,3.34,0,4.62-1.06,5.35-4.21,2.31-10,4.95-20,7.41-30,4.61-18.69,18.67-29.79,37.9-29.8q77.74,0,155.49,0c19.69,0,33.57,10.88,38.3,29.91,2.41,9.68,5,19.31,7.12,29.05.88,4.08,2.71,5.07,6.74,5.06,51.83-.15,103.66-.09,155.49-.1,21.39,0,34.65,13.16,34.65,34.48q0,228.77,0,457.53c0,22.4-12.87,35.17-35.44,35.17H89.87c-21,0-34.3-13.3-34.3-34.33q0-229.75,0-459.52c0-19.59,13.73-33.29,33.31-33.33C98.86,97.22,108.84,97.24,119.6,97.24Zm-48,127.59V560.41H436.18c-47-45.35-73.22-99.8-76.27-164.35s18-121.46,60.84-171.24h-6c-44.16,0-88.32.05-132.47-.08-3.92,0-6,.94-7.89,4.72-8.79,17.66-23.36,27.24-43.11,27.16s-34.29-9.64-43-27.36c-1.8-3.68-3.77-4.53-7.51-4.51-34.66.13-69.32.08-104,.08ZM599,608.74c122.55.78,223.69-99.45,224.56-222.52.87-123.7-99.31-224.6-223.73-225.33C477.25,160.17,376,260.46,375.28,383.4,374.52,507.19,474.56,608,599,608.74ZM183,208.9c5.71-31.21,22.86-47.89,48.84-47.7,25.58.19,43,17.47,47.89,47.94h5.28q72.74,0,145.47.07a14.21,14.21,0,0,0,10.25-3.78c42.46-37.19,92-57.67,148.38-59.93,64.46-2.6,121.05,18.08,169.78,60.36a13.91,13.91,0,0,0,8.31,3.15c43.66.19,87.31.13,131,.12h5.14c.09-2,.21-3.42.21-4.88q0-36.45,0-72.91c0-12-6.46-18.41-18.56-18.41H89.21c-11.38,0-17.92,6.58-17.93,18q0,36.45,0,72.91c0,1.61.16,3.23.25,5.06ZM903.27,560.6V225.26H778.42C821,274.75,841.94,331.42,838.93,396S809.56,515.15,762.56,560.6ZM512.36,608.75a19.49,19.49,0,0,0-2.21-1.52,257.41,257.41,0,0,1-52.28-29,11.72,11.72,0,0,0-6.46-1.71q-187.25-.12-374.49-.08H71.27c0,5,0,9.29,0,13.59.06,12.5,6.27,18.69,18.76,18.69H512.36ZM707.61,97.06c-3-11.71-5.54-22.88-8.79-33.84C696.33,54.82,687.9,49,679.06,49q-79.68-.08-159.37,0c-8.31,0-15.54,3.89-18.34,11.58-4.27,11.7-6.91,24-10.35,36.43ZM687.55,608l.11.77h50.76q73.74,0,147.49,0c8.69,0,15.48-4.18,16.79-11.93,1.09-6.53.22-13.39.22-20.15-.83-.07-1.48-.17-2.14-.17q-77.25,0-154.49.08a12.37,12.37,0,0,0-5.87,2c-11,6.58-21.74,13.55-32.86,19.89C701.17,602.13,694.24,604.84,687.55,608Zm-424-399a32.14,32.14,0,1,0-32.1,32.16A32.23,32.23,0,0,0,263.55,208.94Zm-128-112.06H247.23V81.24H135.52Zm208.1-15.66V97h63.69V81.22Z"/><path class="cls-1" d="M447.26,161.42A23.84,23.84,0,1,0,423,184.85,23.88,23.88,0,0,0,447.26,161.42Z"/><path class="cls-1" d="M423.58,384.9C423.3,288.66,502,209.42,598.21,209.14c98-.28,176.85,78,177,175.83.2,96.18-78.69,175.36-174.87,175.52A175.81,175.81,0,0,1,423.58,384.9Zm15.7,0c0,88.07,71.75,159.79,159.88,159.87,88.47.09,160.31-71.51,160.39-159.85S687.81,224.8,599.43,224.83,439.25,296.56,439.28,384.92Z"/><path class="cls-1" d="M447.26,161.42a23.84,23.84,0,1,1-23.44-24.2A23.93,23.93,0,0,1,447.26,161.42Z"/><path class="cls-1" d="M519.56,384.47c.14-44.11,36.18-79.64,80.57-79.43,43.62.21,79.22,36.12,79.14,79.85A79.89,79.89,0,0,1,599,464.59C555.1,464.46,519.43,428.47,519.56,384.47Zm64-31.56A16.13,16.13,0,1,0,567.22,369,16.25,16.25,0,0,0,583.55,352.91Zm40,47.65a8.1,8.1,0,1,0-8.12,8.32A8.21,8.21,0,0,0,623.51,400.56Z"/></svg>